<svg
    xmlns="http://www.w3.org/2000/svg" version="1.0" width="32" height="32"
    viewBox="0 0 512.000000 512.000000" preserveAspectRatio="xMidYMid meet"
>
    <g transform="translate(0.000000,512.000000) scale(0.100000,-0.100000)" fill="currentColor"
        stroke="none">
        <path
            d="M942 4239 c-281 -33 -523 -243 -604 -524 l-23 -80 0 -1075 0 -1075 23 -80 c40 -138 123 -268 227 -355 123 -103 242 -153 401 -170 67 -7 611 -10 1664 -8 1744 4 1613 -1 1765 73 146 71 263 186 335 330 80 159 75 78 75 1285 0 1207 5 1126 -75 1285 -93 186 -267 327 -470 382 -61 16 -174 17 -1655 19 -875 1 -1623 -2 -1663 -7z m3312 -231 c172 -67 291 -199 331 -369 22 -96 22 -2062 0 -2158 -41 -173 -169 -313 -342 -373 l-68 -23 -1610 0 -1610 0 -71 22 c-174 55 -307 198 -349 374 -22 96 -22 2062 0 2158 49 205 217 359 425 391 30 4 768 7 1640 6 l1585 -1 69 -27z" />
        <path
            d="M895 3682 c-64 -40 -81 -97 -43 -147 13 -17 248 -250 523 -518 275 -268 501 -491 503 -496 2 -5 -212 -213 -475 -461 -263 -249 -495 -470 -515 -492 -31 -33 -38 -48 -38 -80 0 -66 71 -120 136 -104 14 4 98 75 187 159 88 84 318 302 511 485 193 182 354 332 358 332 4 0 111 -101 238 -225 l229 -225 51 0 50 0 236 230 236 231 61 -57 c34 -32 264 -249 510 -483 247 -234 459 -431 470 -438 30 -17 62 -16 97 2 62 32 78 97 38 153 -13 18 -244 241 -514 496 -271 255 -494 468 -497 473 -3 5 220 229 496 498 276 269 513 504 526 522 31 42 23 91 -20 127 -44 37 -77 43 -115 20 -18 -10 -377 -354 -798 -764 -421 -410 -770 -745 -776 -745 -6 0 -356 335 -777 745 -421 410 -777 753 -792 762 -33 23 -59 23 -96 0z" />
    </g>
</svg>